<?xml version="1.0" encoding="iso-8859-1"?>
<!-- Generator: Adobe Illustrator 19.0.0, SVG Export Plug-In . SVG Version: 6.00 Build 0)  -->
<svg version="1.1" id="Capa_1" xmlns="http://www.w3.org/2000/svg" xmlns:xlink="http://www.w3.org/1999/xlink" x="0px" y="0px"
	 viewBox="0 0 512.001 512.001" style="enable-background:new 0 0 512.001 512.001;" xml:space="preserve">
<path style="fill:#FEA832;" d="M511.688,446.3c0.601,2.701,0.3,5.099-0.601,7.5C506.288,509.001,298.001,512,256,512
	c-42.599,0-256-2.999-256-60c0-1.199,0.3-4.501,0.601-5.7l56.1-225.399c2.1-8.101,10.199-12.9,18.3-10.801h181l181.601-0.298
	c8.099-2.1,16.199,2.699,18.3,10.8L511.688,446.3z"/>
<path style="fill:#FE9923;" d="M511.688,446.3c0.601,2.701,0.3,5.099-0.601,7.5C506.288,509.001,298.001,512,256,512V210.099
	l181.601-0.298c8.099-2.1,16.199,2.699,18.3,10.8L511.688,446.3z"/>
<path style="fill:#E6974A;" d="M422,121c0-33.6-27.599-61.199-61.5-60C353.599,26.8,322.3,0,286,0c-10.499,0-20.4,2.1-30,6.599
	C246.4,2.1,236.499,0,226,0c-36.301,0-67.599,26.8-74.5,61C116.7,59.5,90,87.4,90,121c-32.999,0-60,27.001-60,60
	c0,26.4,15.901,49.799,38.699,58.2C92.999,251.201,181,271,256,271s163.001-19.799,187.599-31.8C466.099,230.799,482,207.4,482,181
	C482,148.001,454.999,121,422,121z"/>
<g>
	<path style="fill:#CE7937;" d="M482,181c0,26.4-15.901,49.799-38.401,58.2C419.001,251.201,331,271,256,271V6.599
		C265.6,2.1,275.501,0,286,0c36.301,0,67.599,26.8,74.5,61c33.9-1.199,61.5,26.4,61.5,60C454.999,121,482,148.001,482,181z"/>
	<path style="fill:#CE7937;" d="M301,106c0,8.401-6.599,15-15,15s-15-6.599-15-15s-6.599-15-15-15s-15,6.599-15,15s-6.599,15-15,15
		s-15-6.599-15-15c0-24.901,20.099-45,45-45S301,81.099,301,106z"/>
	<path style="fill:#CE7937;" d="M362,196c0,8.401-6.599,15-15,15s-15-6.599-15-15s-7.599-15-16-15s-15,6.599-15,15s-6.599,15-15,15
		s-15-6.599-15-15s-6.599-15-15-15s-15,6.599-15,15s-6.599,15-15,15s-15-6.599-15-15s-6.599-15-15-15s-16,6.599-16,15
		s-6.599,15-15,15s-15-6.599-15-15c0-24.901,21.099-45,46-45c11.7,0,21.899,4.501,30,11.7c8.101-7.2,18.3-11.7,30-11.7
		c11.7,0,21.899,4.501,30,11.7c8.101-7.2,18.3-11.7,30-11.7C340.901,151,362,171.099,362,196z"/>
</g>
<path style="fill:#FEDB41;" d="M410.3,377c7.2,8.101,11.7,18.3,11.7,30c0,24.901-20.099,45-45,45s-45-20.099-45-45H180
	c0,24.901-20.099,45-45,45s-45-20.099-45-45c0-11.7,4.501-21.899,11.7-30c-7.2-8.101-11.7-18.3-11.7-30c0-24.901,20.099-45,45-45
	s45,20.099,45,45h152c0-24.901,20.099-45,45-45s45,20.099,45,45C422,358.7,417.499,368.899,410.3,377z"/>
<g>
	<path style="fill:#B25C4A;" d="M256,91V61c24.901,0,45,20.099,45,45c0,8.401-6.599,15-15,15s-15-6.599-15-15S264.401,91,256,91z"/>
	<path style="fill:#B25C4A;" d="M256,181v-30c11.7,0,21.899,4.501,30,11.7c8.101-7.2,18.3-11.7,30-11.7c24.901,0,46,20.099,46,45
		c0,8.401-6.599,15-15,15s-15-6.599-15-15s-7.599-15-16-15s-15,6.599-15,15s-6.599,15-15,15s-15-6.599-15-15S264.401,181,256,181z"
		/>
</g>
<path style="fill:#FCBF29;" d="M410.3,377c7.2,8.101,11.7,18.3,11.7,30c0,24.901-20.099,45-45,45s-45-20.099-45-45h-76v-60h76
	c0-24.901,20.099-45,45-45s45,20.099,45,45C422,358.7,417.499,368.899,410.3,377z"/>
<g>
</g>
<g>
</g>
<g>
</g>
<g>
</g>
<g>
</g>
<g>
</g>
<g>
</g>
<g>
</g>
<g>
</g>
<g>
</g>
<g>
</g>
<g>
</g>
<g>
</g>
<g>
</g>
<g>
</g>
</svg>
