<?xml version="1.0" encoding="iso-8859-1"?>
<!-- Generator: Adobe Illustrator 19.0.0, SVG Export Plug-In . SVG Version: 6.00 Build 0)  -->
<svg version="1.1" id="Capa_1" xmlns="http://www.w3.org/2000/svg" xmlns:xlink="http://www.w3.org/1999/xlink" x="0px" y="0px"
	 viewBox="0 0 512 512" style="enable-background:new 0 0 512 512;" xml:space="preserve">
<g>
	<path style="fill:#00EA7D;" d="M161.236,180.972l-21.211-21.211c-5.859-5.859-5.859-15.352,0-21.211s15.352-5.859,21.211,0
		l21.211,21.211c5.859,5.859,5.859,15.352,0,21.211C176.587,186.831,167.095,186.831,161.236,180.972z"/>
	<path style="fill:#00EA7D;" d="M171.841,226h-42.422c-8.291,0-15-6.709-15-15s6.709-15,15-15h42.422c8.291,0,15,6.709,15,15
		S180.132,226,171.841,226z"/>
	<path style="fill:#00EA7D;" d="M216,185.366c-8.291,0-15-6.709-15-15v-42.422c0-8.291,6.709-15,15-15s15,6.709,15,15v42.422
		C231,178.657,224.291,185.366,216,185.366z"/>
</g>
<g>
	<path style="fill:#00CB7E;" d="M352.164,371.9l-21.211-21.211c-5.859-5.859-5.859-15.352,0-21.211s15.352-5.859,21.211,0
		l21.211,21.211c5.859,5.859,5.859,15.352,0,21.211C367.515,377.759,358.023,377.759,352.164,371.9z"/>
	<path style="fill:#00CB7E;" d="M299,397.505c-8.291,0-15-6.709-15-15v-42.422c0-8.291,6.709-15,15-15c8.291,0,15,6.709,15,15
		v42.422C314,390.796,307.291,397.505,299,397.505z"/>
	<path style="fill:#00CB7E;" d="M383.98,311h-42.422c-8.291,0-15-6.709-15-15s6.709-15,15-15h42.422c8.291,0,15,6.709,15,15
		S392.271,311,383.98,311z"/>
</g>
<path style="fill:#E1E4FB;" d="M281.6,303.825c-1.5-5.099-6-9.3-11.4-10.201l-43.2-8.699l-8.701-43.2
	c-0.899-5.4-5.099-9.901-10.199-11.4c-5.4-1.8-11.1-0.3-15,3.6L142.124,284.9c-35.099-24.901-84.3-21.901-115.8,9.6
	c-35.099,35.099-35.099,92.399,0,127.5c11.4,11.1,25.201,18.9,40.499,23.099c4.2,15.3,12.001,29.101,23.101,40.501
	c17.701,17.399,40.8,26.4,63.6,26.4c23.101,0,46.201-9.001,63.9-26.4c31.5-31.501,34.501-80.7,9.6-115.801L278,318.825
	C281.901,314.924,283.4,309.224,281.6,303.825z"/>
<path style="fill:#C5C9F7;" d="M281.6,303.825c1.8,5.4,0.3,11.1-3.6,15l-50.976,50.974c24.901,35.101,21.899,84.3-9.6,115.801
	c-17.699,17.399-40.8,26.4-63.9,26.4c-22.8,0-45.899-9.001-63.6-26.4c-11.1-11.4-18.9-25.201-23.101-40.501L227,284.924l43.2,8.699
	C275.6,294.525,280.101,298.725,281.6,303.825z"/>
<path style="fill:#E1E4FB;" d="M485.6,89.924c-0.901-0.901-1.8-1.5-2.701-2.401c-11.1-10.199-24.3-17.1-37.798-20.7
	C440.9,51.225,433.1,37.424,422,26.325c-35.099-35.099-92.401-35.099-127.5,0c-31.5,31.5-34.501,80.7-9.6,115.8l-49.501,49.501
	c-3.6,3.6-5.099,8.699-3.9,13.499L242,258.224c0.601,3.001,2.1,5.7,3.9,7.8c2.1,1.8,4.799,3.3,7.8,3.9l53.099,10.499
	c0.901,0.3,1.8,0.3,3.001,0.3c3.9,0,7.8-1.5,10.499-4.2l49.501-49.499c35.099,24.901,84.3,21.899,115.8-9.6
	c17.699-17.401,26.4-40.8,26.4-63.6C512,130.424,503.299,107.623,485.6,89.924z"/>
<path style="fill:#C5C9F7;" d="M512,153.825c0,22.8-8.701,46.199-26.4,63.6c-31.5,31.5-80.7,34.501-115.8,9.6l-49.5,49.499
	c-2.699,2.701-6.599,4.2-10.499,4.2c-1.201,0-2.1,0-3.001-0.3l-53.1-10.5c-3.001-0.601-5.7-2.1-7.8-3.9l199.2-199.2
	c13.499,3.6,26.699,10.501,37.798,20.7c0.901,0.901,1.8,1.5,2.701,2.401C503.299,107.623,512,130.424,512,153.825z"/>
<g>
</g>
<g>
</g>
<g>
</g>
<g>
</g>
<g>
</g>
<g>
</g>
<g>
</g>
<g>
</g>
<g>
</g>
<g>
</g>
<g>
</g>
<g>
</g>
<g>
</g>
<g>
</g>
<g>
</g>
</svg>
