<?xml version="1.0" encoding="iso-8859-1"?>
<!-- Generator: Adobe Illustrator 19.0.0, SVG Export Plug-In . SVG Version: 6.00 Build 0)  -->
<svg version="1.1" id="Capa_1" xmlns="http://www.w3.org/2000/svg" xmlns:xlink="http://www.w3.org/1999/xlink" x="0px" y="0px"
	 viewBox="0 0 512 512" style="enable-background:new 0 0 512 512;" xml:space="preserve">
<path style="fill:#FEDBAB;" d="M506.026,319.999l-86.999,126c-16.8,22.5-43.801,36-72.001,36h-287v-171.9
	c21.899-19.199,35.4-32.399,63.6-39.899c36.301-9.6,72.7,0.3,96.7,21.899c6,5.099,9.6,9.901,17.1,9.901h18.6c50.7,0,27.1,0,91,0
	c16.5,0,30,13.5,30,30s-13.5,30-30,30h-121c-16.8,0-29.7,7.2-37.8,18.6c-4.799,6.899-3.3,16.199,3.3,21
	c6.901,4.799,16.201,3.3,21-3.301c3.3-4.799,8.101-6.299,13.5-6.299h30c125.4,0,68.2,0,100.901,0c5.7,0,16.5-3.6,22.2-9.6l81-100.8
	c10.199-11.1,27.299-12.9,39.6-3.9C513.225,287.599,515.926,306.799,506.026,319.999z"/>
<g>
	<path style="fill:#FEC478;" d="M347.026,362h-91v-60c50.7,0,27.1,0,91,0c16.5,0,30,13.5,30,30S363.526,362,347.026,362z"/>
	<path style="fill:#FEC478;" d="M506.026,319.999l-86.999,126c-16.8,22.5-43.801,36-72.001,36h-91v-90c125.4,0,68.2,0,100.901,0
		c5.7,0,16.5-3.6,22.2-9.6l81-100.8c10.199-11.1,27.299-12.9,39.6-3.9C513.225,287.599,515.926,306.799,506.026,319.999z"/>
</g>
<path style="fill:#00EA7D;" d="M45.026,512h-30c-8.291,0-15-6.709-15-15V287c0-8.291,6.709-15,15-15h30c24.814,0,45,20.186,45,45
	v150C90.026,491.814,69.841,512,45.026,512z"/>
<path style="fill:#CE7937;" d="M226.026,90c-16.538,0-30-20.186-30-45s13.462-45,30-45s30,20.186,30,45S242.564,90,226.026,90z"/>
<path style="fill:#B25C4A;" d="M286.026,90c-16.538,0-30-20.186-30-45s13.462-45,30-45s30,20.186,30,45S302.564,90,286.026,90z"/>
<path style="fill:#CE7937;" d="M166.026,150c-16.538,0-30-20.186-30-45s13.462-45,30-45s30,20.186,30,45S182.564,150,166.026,150z"
	/>
<path style="fill:#B25C4A;" d="M346.026,150c-16.538,0-30-20.186-30-45s13.462-45,30-45s30,20.186,30,45S362.564,150,346.026,150z"
	/>
<path style="fill:#CE7937;" d="M346.026,180c0,16.5-13.5,30-30,30h-30c-7.5,0-14.399-2.701-20.099-7.8l-9.901-8.699l-9.901,8.699
	c-5.7,5.099-12.599,7.8-20.099,7.8h-30c-16.5,0-30-13.5-30-30c0-12.601,8.101-24,20.099-28.2l10.501-3.9l-0.601-11.1
	c0-26.7,20.099-46.8,45-46.8h30c24.901,0,45,20.099,45,45v10.499l9.901,6.301C337.926,156,346.026,167.399,346.026,180z"/>
<path style="fill:#B25C4A;" d="M346.026,180c0,16.5-13.5,30-30,30h-30c-7.5,0-14.399-2.701-20.099-7.8l-9.901-8.699V90h15
	c24.901,0,45,20.099,45,45v10.499l9.901,6.301C337.926,156,346.026,167.399,346.026,180z"/>
<g>
</g>
<g>
</g>
<g>
</g>
<g>
</g>
<g>
</g>
<g>
</g>
<g>
</g>
<g>
</g>
<g>
</g>
<g>
</g>
<g>
</g>
<g>
</g>
<g>
</g>
<g>
</g>
<g>
</g>
</svg>
