<?xml version="1.0" encoding="iso-8859-1"?>
<!-- Generator: Adobe Illustrator 19.0.0, SVG Export Plug-In . SVG Version: 6.00 Build 0)  -->
<svg version="1.1" id="Capa_1" xmlns="http://www.w3.org/2000/svg" xmlns:xlink="http://www.w3.org/1999/xlink" x="0px" y="0px"
	 viewBox="0 0 512 512" style="enable-background:new 0 0 512 512;" xml:space="preserve">
<path style="fill:#FF4394;" d="M330.998,269.494v227.495c0,6-3.6,11.4-9.3,13.799c-1.8,0.901-3.9,1.201-5.7,1.201
	c-3.9,0-7.8-1.5-10.499-4.501l-49.5-49.199l-49.5,49.199c-4.199,4.501-10.499,5.7-16.199,3.3c-5.7-2.399-9.3-7.798-9.3-13.799
	V269.494H330.998z"/>
<path style="fill:#FF1E7E;" d="M330.998,269.494v227.495c0,6-3.6,11.4-9.3,13.799c-1.8,0.901-3.9,1.201-5.7,1.201
	c-3.9,0-7.8-1.5-10.499-4.501l-49.5-49.199V269.494H330.998z"/>
<path style="fill:#FEDB41;" d="M420.396,119.396c-9.3-28.499-66.598-35.098-99.598-36.898C309.399,51.898,285.999,0,255.999,0
	c-29.699,0-53.4,51.898-64.798,82.498c-33,1.8-90.298,8.399-99.598,36.898c-9.001,28.499,33.299,66.3,59.699,86.098
	c-9,32.4-21,90.397,3.3,108.098c23.999,17.401,73.799-11.7,101.398-30.898c21.599,15,57,36.298,82.798,36.298
	c7.2,0,13.5-1.8,18.6-5.4c24.299-17.701,12.599-75.698,3.3-108.098C387.096,185.696,429.397,147.897,420.396,119.396z"/>
<path style="fill:#FCBF29;" d="M360.697,205.495c9.3,32.4,21,90.397-3.3,108.098c-5.099,3.6-11.4,5.4-18.6,5.4
	c-25.799,0-61.2-21.299-82.798-36.298V0c29.999,0,53.4,51.898,64.798,82.498c33,1.8,90.298,8.399,99.598,36.898
	C429.397,147.897,387.096,185.696,360.697,205.495z"/>
<g>
</g>
<g>
</g>
<g>
</g>
<g>
</g>
<g>
</g>
<g>
</g>
<g>
</g>
<g>
</g>
<g>
</g>
<g>
</g>
<g>
</g>
<g>
</g>
<g>
</g>
<g>
</g>
<g>
</g>
</svg>
